<svg width="48" height="48" viewBox="0 0 48 48" fill="none" xmlns="http://www.w3.org/2000/svg">
<rect width="48" height="48" rx="10" fill="black"/>
<path d="M40.8018 18.1115C40.0033 16.6114 38.8105 15.3577 37.3521 14.4854C35.8937 13.6131 34.2249 13.1553 32.5256 13.1613H6.31699C6.13933 13.1628 5.96607 13.2167 5.8189 13.3162C5.67174 13.4157 5.55721 13.5565 5.48966 13.7208C5.42212 13.8851 5.40456 14.0657 5.43919 14.24C5.47382 14.4142 5.5591 14.5744 5.68434 14.7004L11.393 20.4423C11.6427 20.6933 11.9396 20.8925 12.2666 21.0284C12.5936 21.1643 12.9442 21.2342 13.2983 21.234H31.7745C32.0874 21.2309 32.3979 21.2894 32.6881 21.4062C32.9784 21.523 33.2428 21.6959 33.4663 21.9149C33.6898 22.1339 33.868 22.3948 33.9906 22.6826C34.1133 22.9705 34.178 23.2797 34.1812 23.5926C34.1843 23.9055 34.1258 24.2159 34.009 24.5062C33.8922 24.7965 33.7193 25.0609 33.5003 25.2844C33.2813 25.5079 33.0204 25.686 32.7326 25.8087C32.4447 25.9313 32.1355 25.9961 31.8226 25.9992H19.0846C18.9066 26 18.7329 26.0534 18.5851 26.1526C18.4374 26.2519 18.3223 26.3926 18.2543 26.557C18.1863 26.7215 18.1684 26.9024 18.2029 27.077C18.2375 27.2516 18.3228 27.4121 18.4483 27.5383L24.1606 33.2839C24.4102 33.5351 24.707 33.7344 25.0341 33.8703C25.3611 34.0062 25.7118 34.076 26.0659 34.0756H31.8263C39.3219 34.0756 44.9898 26.0621 40.8018 18.1078" fill="#A9E149"/>
</svg>
