<svg width="48" height="49" viewBox="0 0 48 49" fill="none" xmlns="http://www.w3.org/2000/svg">
<path d="M24.0547 0H23.9453C10.7207 0 0 10.7239 0 23.9524V24.0617C0 37.2903 10.7207 48.0141 23.9453 48.0141H24.0547C37.2793 48.0141 48 37.2903 48 24.0617V23.9524C48 10.7239 37.2793 0 24.0547 0Z" fill="black"/>
<path d="M35.6019 17.3702V21.9036C34.8099 21.8262 33.7807 21.6462 32.6422 21.2291C31.1556 20.684 30.0491 19.9388 29.3243 19.3618V28.5246L29.3058 28.496C29.3175 28.6777 29.3243 28.8627 29.3243 29.0495C29.3243 33.5997 25.6229 37.3039 21.0723 37.3039C16.5217 37.3039 12.8203 33.5997 12.8203 29.0495C12.8203 24.4992 16.5217 20.7934 21.0723 20.7934C21.5179 20.7934 21.9552 20.8287 22.3823 20.8977V25.3655C21.972 25.2192 21.5314 25.1401 21.0723 25.1401C18.9181 25.1401 17.1641 26.8929 17.1641 29.0495C17.1641 31.206 18.9181 32.9588 21.0723 32.9588C23.2265 32.9588 24.9805 31.2043 24.9805 29.0495C24.9805 28.9687 24.9788 28.888 24.9738 28.8072V11.0015H29.5025C29.5193 11.385 29.5345 11.7719 29.5513 12.1554C29.5816 12.9107 29.8506 13.6357 30.3198 14.2295C30.8697 14.9276 31.682 15.7385 32.8221 16.3861C33.89 16.99 34.8923 17.2507 35.6019 17.3735V17.3702Z" fill="#A9E149"/>
</svg>
