<svg width="48" height="49" viewBox="0 0 48 49" fill="none" xmlns="http://www.w3.org/2000/svg">
<path d="M24.0547 0H23.9453C10.7207 0 0 10.7239 0 23.9524V24.0617C0 37.2903 10.7207 48.0141 23.9453 48.0141H24.0547C37.2793 48.0141 48 37.2903 48 24.0617V23.9524C48 10.7239 37.2793 0 24.0547 0Z" fill="#A9E249"/>
<path d="M35.6039 17.3702V21.9036C34.8118 21.8262 33.7826 21.6462 32.6441 21.2291C31.1575 20.684 30.051 19.9388 29.3262 19.3618V28.5246L29.3077 28.496C29.3195 28.6777 29.3262 28.8627 29.3262 29.0495C29.3262 33.5997 25.6248 37.3039 21.0742 37.3039C16.5236 37.3039 12.8223 33.5997 12.8223 29.0495C12.8223 24.4992 16.5236 20.7934 21.0742 20.7934C21.5199 20.7934 21.9571 20.8287 22.3843 20.8977V25.3655C21.9739 25.2192 21.5333 25.1401 21.0742 25.1401C18.92 25.1401 17.166 26.8929 17.166 29.0495C17.166 31.206 18.92 32.9588 21.0742 32.9588C23.2285 32.9588 24.9824 31.2043 24.9824 29.0495C24.9824 28.9687 24.9808 28.888 24.9757 28.8072V11.0015H29.5045C29.5213 11.385 29.5364 11.7719 29.5532 12.1554C29.5835 12.9107 29.8526 13.6357 30.3218 14.2295C30.8717 14.9276 31.6839 15.7385 32.8241 16.3861C33.8919 16.99 34.8942 17.2507 35.6039 17.3735V17.3702Z" fill="black"/>
</svg>
