<svg width="48" height="48" viewBox="0 0 48 48" fill="none" xmlns="http://www.w3.org/2000/svg">
<g clip-path="url(#clip0_441_687)">
<path d="M38.5449 0H9.45514C4.23321 0 0 4.23321 0 9.45514V38.5449C0 43.7668 4.23321 48 9.45514 48H38.5449C43.7668 48 48 43.7668 48 38.5449V9.45514C48 4.23321 43.7668 0 38.5449 0Z" fill="black"/>
<path d="M23.0021 32.1607C23.0081 31.6663 22.8669 31.1814 22.5966 30.7675C22.3262 30.3535 21.939 30.0293 21.4839 29.836C21.0289 29.6427 20.5267 29.589 20.0411 29.6818C19.5555 29.7746 19.1084 30.0097 18.7568 30.3572C18.4051 30.7046 18.1646 31.1488 18.066 31.6332C17.9673 32.1177 18.0149 32.6205 18.2027 33.0778C18.3905 33.5352 18.71 33.9263 19.1207 34.2016C19.5313 34.477 20.0145 34.624 20.5089 34.624C20.835 34.6284 21.1587 34.5678 21.4612 34.446C21.7637 34.3241 22.039 34.1433 22.271 33.9141C22.503 33.6849 22.6871 33.4118 22.8126 33.1108C22.9381 32.8098 23.0025 32.4868 23.0021 32.1607ZM25.0374 28.135V36.2163H22.9632V35.489C22.2244 36.0867 21.3005 36.4085 20.3503 36.3989C19.784 36.4139 19.2205 36.3154 18.6929 36.1091C18.1654 35.9028 17.6845 35.5929 17.2787 35.1977C16.8729 34.8026 16.5503 34.3301 16.3301 33.8082C16.1099 33.2863 15.9964 32.7256 15.9964 32.1592C15.9964 31.5928 16.1099 31.0321 16.3301 30.5102C16.5503 29.9883 16.8729 29.5158 17.2787 29.1207C17.6845 28.7255 18.1654 28.4156 18.6929 28.2093C19.2205 28.003 19.784 27.9045 20.3503 27.9195C21.3073 27.9154 22.2358 28.2457 22.9752 28.8533V28.135H25.0374ZM31.9215 34.3726H30.3621C29.8862 34.3726 29.5809 34.1661 29.5809 33.738V29.9548H31.9215V28.135H29.5899V25.8303H27.4947V28.135H25.9204V29.9638H27.4977V34.2588C27.4977 35.3423 28.2789 36.2014 29.6857 36.2014H31.9305L31.9215 34.3726ZM36.6476 36.4079C39.042 36.4079 40.3949 35.2885 40.3949 33.738C40.3949 32.6366 39.5957 31.8135 37.9226 31.4603L36.1537 31.1041C35.1271 30.9186 34.8038 30.73 34.8038 30.3589C34.8038 29.871 35.2977 29.5717 36.2106 29.5717C37.1983 29.5717 37.9226 29.8351 38.1321 30.73H40.2063C40.0896 29.0509 38.8535 27.9285 36.3423 27.9285C34.1753 27.9285 32.6518 28.8084 32.6518 30.5055C32.6518 31.6818 33.4899 32.448 35.2977 32.8222L37.2761 33.2711C38.0543 33.4208 38.2638 33.6243 38.2638 33.9416C38.2638 34.4474 37.6652 34.7647 36.7224 34.7647C35.5252 34.7647 34.8397 34.5043 34.5734 33.6064H32.4782C32.7775 35.2885 34.0586 36.4079 36.6446 36.4079H36.6476ZM7.59375 25.2706H15.4147V27.1353H9.70686V29.8081H15.262V31.604H9.70686V34.2978H15.4147V36.1654H7.59375V25.2706Z" fill="#A9E149"/>
<path d="M40.2153 15.8064V14.3398H39.6586C39.2702 14.3243 38.8847 14.413 38.542 14.5966C38.1994 14.7803 37.9122 15.0523 37.7101 15.3844V14.4027H36.1208V22.3613H37.7251V17.8357C37.7251 16.6026 38.4883 15.8064 39.5389 15.8064H40.2153ZM28.674 17.6591C28.7872 17.0867 29.0956 16.5713 29.5464 16.2009C29.9973 15.8304 30.5628 15.6279 31.1463 15.6279C31.7298 15.6279 32.2953 15.8304 32.7461 16.2009C33.197 16.5713 33.5054 17.0867 33.6186 17.6591H28.674ZM31.1852 14.247C30.6395 14.2423 30.0983 14.3457 29.5928 14.5513C29.0873 14.757 28.6276 15.0607 28.2402 15.4451C27.8528 15.8294 27.5454 16.2867 27.3358 16.7906C27.1261 17.2944 27.0184 17.8348 27.0188 18.3805C27.0188 20.754 28.8955 22.5319 31.3289 22.5319C32.0046 22.5455 32.6738 22.3985 33.2816 22.1029C33.8894 21.8074 34.4183 21.3717 34.8248 20.8318L33.6635 19.9877C33.399 20.3583 33.0481 20.6588 32.6413 20.8632C32.2345 21.0677 31.7841 21.1699 31.3289 21.161C30.6832 21.1693 30.056 20.9454 29.5616 20.5301C29.0672 20.1148 28.7384 19.5357 28.6351 18.8983H35.2199V18.3805C35.2199 16.0099 33.5048 14.247 31.1672 14.247H31.1852ZM22.0144 21.161C21.4688 21.1575 20.9364 20.9925 20.4845 20.6867C20.0326 20.381 19.6813 19.9483 19.4749 19.4432C19.2686 18.9381 19.2164 18.3832 19.325 17.8485C19.4337 17.3138 19.6982 16.8233 20.0852 16.4387C20.4723 16.0541 20.9646 15.7928 21.5 15.6877C22.0354 15.5825 22.5899 15.6383 23.0937 15.8479C23.5974 16.0575 24.0278 16.4116 24.3306 16.8655C24.6334 17.3194 24.795 17.8528 24.795 18.3984C24.7942 18.7625 24.7216 19.1229 24.5814 19.4589C24.4411 19.7948 24.236 20.0999 23.9777 20.3565C23.7194 20.6131 23.4131 20.8162 23.0762 20.9543C22.7393 21.0924 22.3785 21.1626 22.0144 21.161ZM17.6565 22.3613H19.2458V21.3616C19.6259 21.7416 20.0771 22.0429 20.5738 22.2483C21.0704 22.4538 21.6027 22.5593 22.1401 22.5588C22.6957 22.5737 23.2485 22.4772 23.7662 22.2749C24.2838 22.0726 24.7556 21.7686 25.1538 21.3809C25.552 20.9933 25.8685 20.5298 26.0846 20.0178C26.3007 19.5058 26.4121 18.9557 26.4121 18.3999C26.4121 17.8442 26.3007 17.2941 26.0846 16.7821C25.8685 16.2701 25.552 15.8066 25.1538 15.4189C24.7556 15.0312 24.2838 14.7273 23.7662 14.525C23.2485 14.3227 22.6957 14.2261 22.1401 14.241C21.6049 14.2407 21.075 14.3464 20.5808 14.5519C20.0866 14.7573 19.638 15.0586 19.2608 15.4383V11.4365H17.6565V22.3613ZM11.9996 21.0802C13.541 21.0802 14.7322 19.9099 14.7322 18.1799V11.4365H16.4024V22.3613H14.7472V21.3466C14.363 21.7337 13.9047 22.0392 13.3997 22.2449C12.8946 22.4506 12.3533 22.5523 11.808 22.5438C9.41354 22.5438 7.59375 20.8408 7.59375 18.2667V11.4365H9.27586V18.1799C9.27586 19.9429 10.4521 21.0802 12.0115 21.0802" fill="#A9E149"/>
</g>
<defs>
<clipPath id="clip0_441_687">
<rect width="48" height="48" fill="white"/>
</clipPath>
</defs>
</svg>
