<?xml version="1.0" encoding="UTF-8"?>
<svg id="Layer_2" xmlns="http://www.w3.org/2000/svg" viewBox="0 0 731.21 313.16">
  <defs>
    <style>
      .cls-1 {
        fill: #a9e149;
      }
    </style>
  </defs>
  <g id="Layer_6">
    <g id="transparent-logo">
      <g>
        <path class="cls-1" d="M67.71,224.05c.34.34.51.81.51,1.41v16.77c0,.6-.17,1.07-.51,1.41-.34.34-.81.51-1.41.51h-15.11c-.51,0-.77.26-.77.77v66.32c0,.6-.17,1.07-.51,1.41-.34.34-.81.51-1.41.51h-20.23c-.6,0-1.07-.17-1.41-.51-.34-.34-.51-.81-.51-1.41v-66.32c0-.51-.26-.77-.77-.77h-14.72c-.6,0-1.07-.17-1.41-.51-.34-.34-.51-.81-.51-1.41v-16.77c0-.6.17-1.07.51-1.41.34-.34.81-.51,1.41-.51h55.44c.6,0,1.07.17,1.41.51Z"/>
        <path class="cls-1" d="M124.56,243.64c-.34.34-.81.51-1.41.51h-24.45c-.51,0-.77.26-.77.77v12.29c0,.51.26.77.77.77h12.67c.6,0,1.07.17,1.41.51.34.34.51.81.51,1.41v16.77c0,.6-.17,1.07-.51,1.41-.34.34-.81.51-1.41.51h-12.67c-.51,0-.77.26-.77.77v12.42c0,.51.26.77.77.77h24.45c.6,0,1.07.17,1.41.51.34.34.51.81.51,1.41v16.77c0,.6-.17,1.07-.51,1.41-.34.34-.81.51-1.41.51h-47.37c-.6,0-1.07-.17-1.41-.51-.34-.34-.51-.81-.51-1.41v-85.78c0-.6.17-1.07.51-1.41s.81-.51,1.41-.51h47.37c.6,0,1.07.17,1.41.51.34.34.51.81.51,1.41v16.77c0,.6-.17,1.07-.51,1.41Z"/>
        <path class="cls-1" d="M129.87,312.58c-.3-.38-.32-.92-.06-1.6l16.77-42.12c.17-.34.17-.68,0-1.02l-16.77-42.12c-.09-.26-.13-.55-.13-.9,0-.85.55-1.28,1.66-1.28h20.48c.51,0,.98.15,1.41.45.43.3.68.7.77,1.22l5.12,17.54c.17.34.36.51.58.51s.36-.17.45-.51l5.12-17.54c.08-.51.34-.92.77-1.22.43-.3.9-.45,1.41-.45h20.36c.68,0,1.17.19,1.47.58.3.38.32.92.06,1.6l-16.77,42.12c-.17.34-.17.68,0,1.02l16.77,42.12c.08.26.13.56.13.9,0,.85-.56,1.28-1.66,1.28h-20.23c-.51,0-.98-.15-1.41-.45-.43-.3-.68-.7-.77-1.22l-5.25-17.41c-.09-.34-.24-.51-.45-.51s-.41.17-.58.51l-5.25,17.41c-.09.51-.34.92-.77,1.22-.43.3-.9.45-1.41.45h-20.36c-.68,0-1.17-.19-1.47-.58Z"/>
        <path class="cls-1" d="M192.03,286.4c-.34-.34-.51-.81-.51-1.41v-16.64c0-.6.17-1.07.51-1.41.34-.34.81-.51,1.41-.51h35.46c.6,0,1.07.17,1.41.51.34.34.51.81.51,1.41v16.64c0,.6-.17,1.07-.51,1.41-.34.34-.81.51-1.41.51h-35.46c-.6,0-1.07-.17-1.41-.51Z"/>
        <path class="cls-1" d="M281.01,223.54h19.97c.6,0,1.07.17,1.41.51.34.34.51.81.51,1.41v85.78c0,.6-.17,1.07-.51,1.41-.34.34-.81.51-1.41.51h-20.23c-.6,0-1.07-.17-1.41-.51-.34-.34-.51-.81-.51-1.41v-52.11c0-.34-.11-.55-.32-.64-.21-.08-.41.04-.58.38l-7.3,12.29-1.28,2.31h-.13l-8.45-14.6c-.17-.34-.36-.49-.58-.45-.21.04-.32.28-.32.7v52.11c0,.6-.17,1.07-.51,1.41-.34.34-.81.51-1.41.51h-20.23c-.6,0-1.07-.17-1.41-.51-.34-.34-.51-.81-.51-1.41v-85.78c0-.6.17-1.07.51-1.41s.81-.51,1.41-.51h19.97c1.11,0,1.88.47,2.3,1.41l8.96,16.39c.17.26.36.41.58.45.21.04.36-.11.45-.45l8.71-16.39c.51-.94,1.28-1.41,2.3-1.41Z"/>
        <path class="cls-1" d="M359.62,243.64c-.34.34-.81.51-1.41.51h-24.45c-.51,0-.77.26-.77.77v12.29c0,.51.26.77.77.77h12.67c.6,0,1.07.17,1.41.51.34.34.51.81.51,1.41v16.77c0,.6-.17,1.07-.51,1.41-.34.34-.81.51-1.41.51h-12.67c-.51,0-.77.26-.77.77v12.42c0,.51.26.77.77.77h24.45c.6,0,1.07.17,1.41.51.34.34.51.81.51,1.41v16.77c0,.6-.17,1.07-.51,1.41-.34.34-.81.51-1.41.51h-47.37c-.6,0-1.07-.17-1.41-.51-.34-.34-.51-.81-.51-1.41v-85.78c0-.6.17-1.07.51-1.41s.81-.51,1.41-.51h47.37c.6,0,1.07.17,1.41.51.34.34.51.81.51,1.41v16.77c0,.6-.17,1.07-.51,1.41Z"/>
        <path class="cls-1" d="M364.93,312.58c-.3-.38-.32-.92-.06-1.6l16.77-42.12c.17-.34.17-.68,0-1.02l-16.77-42.12c-.09-.26-.13-.55-.13-.9,0-.85.55-1.28,1.66-1.28h20.49c.51,0,.98.15,1.41.45.43.3.68.7.77,1.22l5.12,17.54c.17.34.36.51.58.51s.36-.17.45-.51l5.12-17.54c.09-.51.34-.92.77-1.22.43-.3.9-.45,1.41-.45h20.36c.68,0,1.17.19,1.47.58.3.38.32.92.07,1.6l-16.77,42.12c-.17.34-.17.68,0,1.02l16.77,42.12c.08.26.13.56.13.9,0,.85-.56,1.28-1.67,1.28h-20.23c-.51,0-.98-.15-1.41-.45-.43-.3-.68-.7-.77-1.22l-5.25-17.41c-.09-.34-.24-.51-.45-.51s-.41.17-.58.51l-5.25,17.41c-.09.51-.34.92-.77,1.22-.43.3-.9.45-1.41.45h-20.36c-.68,0-1.17-.19-1.47-.58Z"/>
        <path class="cls-1" d="M456.28,312.65c-.34-.34-.51-.81-.51-1.41v-85.78c0-.6.17-1.07.51-1.41.34-.34.81-.51,1.41-.51h25.22c5.63,0,10.6,1.07,14.92,3.2,4.31,2.13,7.66,5.14,10.05,9.03,2.39,3.88,3.59,8.34,3.59,13.38v38.41c0,5.04-1.2,9.5-3.59,13.38-2.39,3.88-5.74,6.89-10.05,9.03-4.31,2.13-9.28,3.2-14.92,3.2h-25.22c-.6,0-1.07-.17-1.41-.51ZM480.6,292.55l1.79-.13c1.36-.08,2.52-.72,3.46-1.92.94-1.19,1.45-2.73,1.54-4.61v-35.21c0-1.96-.47-3.54-1.41-4.74-.94-1.19-2.18-1.79-3.71-1.79h-1.67c-.51,0-.77.26-.77.77v46.86c0,.51.26.77.77.77Z"/>
        <path class="cls-1" d="M518.11,312.65c-.34-.34-.51-.81-.51-1.41v-85.78c0-.6.17-1.07.51-1.41.34-.34.81-.51,1.41-.51h20.23c.6,0,1.07.17,1.41.51.34.34.51.81.51,1.41v85.78c0,.6-.17,1.07-.51,1.41s-.81.51-1.41.51h-20.23c-.6,0-1.07-.17-1.41-.51Z"/>
        <path class="cls-1" d="M585.97,224.05c.34-.34.81-.51,1.41-.51h19.97c.6,0,1.07.17,1.41.51.34.34.51.81.51,1.41v85.78c0,.6-.17,1.07-.51,1.41s-.81.51-1.41.51h-22.79c-1.11,0-1.79-.55-2.05-1.66l-9.73-38.79c-.09-.26-.26-.38-.51-.38s-.38.17-.38.51l.26,38.41c0,.6-.17,1.07-.51,1.41s-.81.51-1.41.51h-19.97c-.6,0-1.07-.17-1.41-.51-.34-.34-.51-.81-.51-1.41v-85.78c0-.6.17-1.07.51-1.41.34-.34.81-.51,1.41-.51h22.53c1.11,0,1.79.56,2.05,1.66l9.86,38.92c.08.34.26.51.51.51s.38-.17.38-.51l-.13-38.67c0-.6.17-1.07.51-1.41Z"/>
        <path class="cls-1" d="M666.63,243.64c-.34.34-.81.51-1.41.51h-24.45c-.51,0-.77.26-.77.77v12.29c0,.51.26.77.77.77h12.68c.6,0,1.07.17,1.41.51.34.34.51.81.51,1.41v16.77c0,.6-.17,1.07-.51,1.41-.34.34-.81.51-1.41.51h-12.68c-.51,0-.77.26-.77.77v12.42c0,.51.26.77.77.77h24.45c.6,0,1.07.17,1.41.51.34.34.51.81.51,1.41v16.77c0,.6-.17,1.07-.51,1.41s-.81.51-1.41.51h-47.37c-.6,0-1.07-.17-1.41-.51-.34-.34-.51-.81-.51-1.41v-85.78c0-.6.17-1.07.51-1.41.34-.34.81-.51,1.41-.51h47.37c.6,0,1.07.17,1.41.51.34.34.51.81.51,1.41v16.77c0,.6-.17,1.07-.51,1.41Z"/>
        <path class="cls-1" d="M705.67,311.49l-7.81-32.14c-.17-.43-.34-.64-.51-.64-.34,0-.51.26-.51.77v31.75c0,.6-.17,1.07-.51,1.41s-.81.51-1.41.51h-20.23c-.6,0-1.07-.17-1.41-.51-.34-.34-.51-.81-.51-1.41v-85.78c0-.6.17-1.07.51-1.41.34-.34.81-.51,1.41-.51h28.81c5.12,0,9.67,1.22,13.64,3.65,3.97,2.43,7.06,5.81,9.28,10.11,2.22,4.31,3.33,9.24,3.33,14.79,0,4.7-.81,8.9-2.43,12.61-1.62,3.71-3.97,6.72-7.04,9.03-.34.26-.47.6-.39,1.02l10.37,36.23c.08.17.13.38.13.64,0,1.02-.6,1.54-1.79,1.54h-20.87c-1.11,0-1.79-.55-2.05-1.66ZM697.61,244.15c-.51,0-.77.26-.77.77v14.72c0,.51.26.77.77.77h1.67c1.88,0,3.41-.7,4.61-2.11,1.19-1.41,1.79-3.39,1.79-5.95s-.58-4.67-1.73-6.08c-1.15-1.41-2.71-2.11-4.67-2.11h-1.67Z"/>
        <rect class="cls-1" x="73.66" y="185.2" width="656.12" height="27.6"/>
        <path class="cls-1" d="M654.54,170.99c-7.53-3.76-13.37-8.97-17.52-15.64-4.16-6.66-6.23-14.31-6.23-22.93v-7.29c0-1.09.31-1.96.94-2.59.62-.62,1.49-.94,2.59-.94h36.69c1.1,0,1.96.32,2.59.94.63.63.94,1.49.94,2.59v5.17c0,2.51.62,4.55,1.88,6.11,1.25,1.57,2.82,2.35,4.7,2.35s3.45-.71,4.7-2.12c1.25-1.41,1.88-3.21,1.88-5.41,0-2.66-1.26-5.29-3.76-7.88-2.51-2.59-7.76-6.7-15.76-12.35-7.84-5.49-14.31-10.5-19.4-15.05-5.1-4.55-9.53-10.27-13.29-17.17-3.76-6.9-5.65-14.82-5.65-23.75s2.08-17.4,6.23-24.46c4.15-7.06,10.03-12.54,17.64-16.46,7.6-3.92,16.35-5.88,26.22-5.88s18.85,1.96,26.46,5.88c7.6,3.92,13.48,9.41,17.64,16.46,4.15,7.06,6.23,15.21,6.23,24.46v5.17c0,1.1-.32,1.96-.94,2.59-.63.63-1.49.94-2.59.94h-36.45c-1.1,0-1.96-.31-2.59-.94-.63-.62-.94-1.49-.94-2.59v-6.11c0-2.35-.63-4.27-1.88-5.76-1.26-1.49-2.9-2.23-4.94-2.23s-3.65.79-4.82,2.35c-1.18,1.57-1.76,3.69-1.76,6.35,0,3.14,1.25,6.16,3.76,9.05,2.51,2.9,7.53,7.1,15.05,12.58,10.03,7.37,17.6,13.33,22.7,17.87,5.09,4.55,9.09,9.68,11.99,15.41,2.9,5.73,4.35,12.43,4.35,20.11,0,14.27-4.63,25.64-13.88,34.1-9.25,8.47-21.4,12.7-36.46,12.7-10.04,0-18.82-1.88-26.34-5.64Z"/>
        <path class="cls-1" d="M623.96,11.17c.47.71.55,1.69.24,2.94l-17.17,49.63c-.63,1.88-1.96,2.82-4,2.82h-27.75c-2.67,0-3.76-1.25-3.29-3.76l8.94-49.39c.47-2.19,1.72-3.29,3.76-3.29h36.69c1.25,0,2.12.35,2.59,1.06Z"/>
        <path class="cls-1" d="M534.59,171.46l-2.59-17.64c0-.31-.16-.62-.47-.94-.32-.31-.71-.47-1.18-.47h-20.7c-.47,0-.86.16-1.18.47-.32.32-.47.63-.47.94l-2.35,17.64c-.16,2.2-1.41,3.29-3.76,3.29h-36.93c-2.51,0-3.53-1.25-3.06-3.76L495.31,13.17c.47-2.04,1.8-3.06,4-3.06h42.81c2.19,0,3.53,1.02,4,3.06l33.4,157.82v.94c0,1.88-1.1,2.82-3.29,2.82h-37.87c-2.35,0-3.61-1.09-3.76-3.29ZM514.36,118.54h11.05c1.1,0,1.49-.47,1.18-1.41l-6.35-42.34c-.16-.62-.39-.94-.71-.94s-.55.32-.71.94l-5.65,42.34c0,.94.39,1.41,1.18,1.41Z"/>
        <path class="cls-1" d="M356.08,173.81c-.63-.62-.94-1.49-.94-2.59V13.64c0-1.09.31-1.96.94-2.59.62-.63,1.49-.94,2.59-.94h46.33c10.35,0,19.48,1.96,27.4,5.88,7.92,3.92,14.07,9.45,18.46,16.58,4.39,7.14,6.59,15.33,6.59,24.58v70.56c0,9.25-2.2,17.44-6.59,24.58-4.39,7.14-10.55,12.66-18.46,16.58-7.92,3.92-17.05,5.88-27.4,5.88h-46.33c-1.1,0-1.96-.31-2.59-.94ZM400.77,136.88l3.29-.24c2.51-.15,4.62-1.33,6.35-3.53,1.72-2.19,2.66-5.02,2.82-8.47V59.97c0-3.61-.86-6.5-2.59-8.7-1.73-2.19-4-3.29-6.82-3.29h-3.06c-.94,0-1.41.47-1.41,1.41v86.08c0,.94.47,1.41,1.41,1.41Z"/>
        <path class="cls-1" d="M300.1,11.05c.63-.63,1.49-.94,2.59-.94h36.69c1.09,0,1.96.32,2.59.94.62.63.94,1.49.94,2.59v157.58c0,1.1-.32,1.96-.94,2.59-.63.63-1.49.94-2.59.94h-41.86c-2.04,0-3.29-1.02-3.76-3.06l-17.87-71.26c-.16-.47-.47-.71-.94-.71s-.71.32-.71.94l.47,70.56c0,1.1-.32,1.96-.94,2.59-.63.63-1.49.94-2.59.94h-36.69c-1.1,0-1.96-.31-2.59-.94-.63-.62-.94-1.49-.94-2.59V13.64c0-1.09.31-1.96.94-2.59.62-.63,1.49-.94,2.59-.94h41.39c2.04,0,3.29,1.02,3.76,3.06l18.11,71.5c.15.63.47.94.94.94s.71-.31.71-.94l-.24-71.03c0-1.09.31-1.96.94-2.59Z"/>
        <path class="cls-1" d="M182.15,37.98c-4.16-4.15-6.23-9.44-6.23-15.88s2.08-11.91,6.23-15.99c4.15-4.08,9.44-6.11,15.88-6.11s11.72,2.04,15.88,6.11c4.15,4.08,6.23,9.41,6.23,15.99s-2.08,11.52-6.23,15.76c-4.16,4.23-9.45,6.35-15.88,6.35s-11.72-2.08-15.88-6.23ZM177.33,173.81c-.63-.62-.94-1.49-.94-2.59V55.98c0-1.09.31-1.96.94-2.59s1.49-.94,2.59-.94h37.16c1.1,0,1.96.32,2.59.94.62.63.94,1.49.94,2.59v115.25c0,1.1-.32,1.96-.94,2.59-.63.63-1.49.94-2.59.94h-37.16c-1.1,0-1.96-.31-2.59-.94Z"/>
        <path class="cls-1" d="M166.98,137.82c-.63-.62-1.49-.94-2.59-.94h-45.86c-.94,0-1.41-.47-1.41-1.41V13.64c0-1.09-.32-1.96-.94-2.59-.63-.63-1.49-.94-2.59-.94h-21.05c-5.06-.25-10.15-.24-15.2-.22-4.54.01-9.11.15-13.61.8-4.45.65-8.6,2-12.77,3.61-7.02,2.73-13.97,6.13-20.31,10.21-.06.04-.14.07-.18.12-8.55,7.02-15.06,16.24-17.69,22.56-1.3,3.12-2.33,6.41-3.06,9.85-.55,2.56-.79,5.32-1.79,7.74-1.21,2.9-3.77,3.76-2.77,7.49.79,2.94,2.26,4.92,3.01,5.74.99,1.07,1.69,1.47,2.29,1.97,4.14,3.4,5.81,13.06,2.25,19.21-.6,1.04-1.18,1.68-2.06,2.65-3.3,3.64-6.91,5.41-9.29,6.3-.3.14-.76.42-1.07.96,0,0-.25.44-.29,1.02-.1,1.24,4.15,6.76,4.15,6.76,2.62,3.3,3.9,6.14,4.16,6.71,1.15,2.6,1.78,3.87,1.74,5.73-.03,1.36-.42,4.19-1.84,6.67-.61,1.07-1.32,2.03-.98,3.35.45,1.74-.34,2.92-.58,4.63-.38,2.7.2,5,1.56,7.21.28.46.44.68.51,1.08.11.57-.06.94-.21,1.71-.39,2.01-.27,4.39.06,6.4.36,2.21,1.36,3.66,2.48,5.45,1.51,2.43,1.07,5.82,1.01,8.6-.04,1.97-.1,3.94-.23,5.9-.17,2.44-.29,3.87-1.61,5.98-1.15,1.84-1.74,4.3-.61,6.16,1.77,2.92,6.93,3.87,9.87,5,3.33,1.28,5.52,1.74,7.69-1.42,8.83-12.87,26.55-18.41,41.27-20.49,2.53-.36,5.07-.62,7.62-.79.13,0,.25-.02.38-.02h87.95c1.09,0,1.96-.31,2.59-.94.62-.62.94-1.49.94-2.59v-30.81c0-1.1-.32-1.96-.94-2.59ZM19.78,77.97c1.36.47,14.24,5.21,17.21,16.44,0,0,1,3.24-10.89,3.19,0,0,0,0,0,0-.01.04-.1.02-.24,0-.21,0-.4,0-.62,0-.43.08-.73.31-.86.41-.77.61-.94,1.62-.97,1.85,0-.44.08-1.28.61-2.03.21-.29.55-.76,1.06-.8l-5.23-18.41-3.72-2.04,3.65,1.39ZM8.35,120.24c-2.94-5.03-7.85-9.69-7.38-10.2.11-.12.47.04.6.1,3.29,1.5,12.52,8.65,13.58,16.08.25,1.73-.15,2.08-.33,2.2-.97.61-3.28-1.63-3.28-1.63-.4-1-.86-2.06-1.39-3.15,0,0-.84-1.74-1.8-3.38ZM13.57,158.3c-.28,2.36-.81,4.4-1.37,6.07-.53-.64-1.3-1.73-1.84-3.29-.61-1.74-.65-3.28-.61-4.18,0-.28.03-.72.07-1.27.07-.92.14-1.22.2-2.11.03-.38.04-.66.05-.9.37-.13.7-.29,1.11-.6-.29-.24-.78-.4-1.22-.41-.16-.58-.42-1.02-.62-1.3-.38-.65-.78-1.51-1.04-2.58-.78-3.26.37-6.06.81-7.01.94,1,2.11,2.52,3,4.63.35.82.6,1.6.78,2.31l.22,1.97c-.1.34-.18.69-.21,1.05-.49.28-.89.7-1.13,1.25.44.02.84,0,1.22-.05.09.4.26.78.5,1.12l.29,2.56c-.02.86-.09,1.78-.2,2.75ZM18.85,159.44c-.29,1.9-.79,3.1-1.08,3.69-.38-.2-1.18-.75-1.94-2.3-.57-1.16-.88-2.39-1.04-3.15l-.56-4.75c.05-.47.07-.94.03-1.4.5-.21,1-.47,1.52-.86-.52-.31-1.12-.42-1.7-.37-.08-.37-.18-.75-.29-1.12l-.27-2.25c-.03-.83-.02-2.2.22-3.73.31-1.98.86-3.17,1.15-3.72.38.24,1.14.83,1.87,2.33.56,1.16.87,2.38,1.04,3.15l.39,3.32c-.07.3-.13.6-.15.91-.53.29-.97.72-1.24,1.3.47.01.91-.02,1.33-.09.08.39.23.77.44,1.11l.5,4.18c.02.84.01,2.2-.22,3.73ZM24.07,157.43c-.31,1.82-.83,2.94-1.13,3.5-.39-.21-1.2-.78-1.97-2.32-.57-1.14-.88-2.35-1.04-3.09l-.51-4.33c.01-.38,0-.75-.03-1.12.55-.21,1.1-.49,1.67-.89-.56-.32-1.21-.43-1.84-.36-.05-.25-.11-.5-.17-.75l-.35-2.98c-.02-.8,0-2.12.25-3.58.33-1.89.9-3.01,1.2-3.53.39.25,1.16.86,1.9,2.34.57,1.15.88,2.34,1.04,3.09l.43,3.66c-.02.16-.06.33-.06.49-.71.32-1.34.82-1.76,1.48.66-.03,1.27-.12,1.86-.23.06.31.16.62.28.91l.49,4.11c.02.81,0,2.12-.25,3.58ZM29.67,155.75c-.28,1.82-.78,2.96-1.06,3.52-.39-.21-1.22-.76-2.01-2.27-.59-1.13-.92-2.33-1.09-3.07l-.57-4.18c-.01-.42-.04-.83-.09-1.25.77-.24,1.52-.56,2.31-.99-.77-.34-1.64-.42-2.49-.28-.1-.58-.21-1.16-.32-1.75l-.27-1.94c-.04-.8-.05-2.12.18-3.59.3-1.9.84-3.03,1.14-3.55.4.24,1.18.84,1.94,2.3.59,1.13.92,2.32,1.09,3.07l.38,2.77c-.05.6-.07,1.19-.01,1.79-.53.26-1.01.62-1.41,1.09.54.11,1.07.13,1.58.08.04.2.07.4.12.59.11.36.22.62.32.84l.44,3.24c.03.81.04,2.12-.18,3.59ZM35.15,154.79c-.31,1.84-.84,2.99-1.15,3.56-.42-.19-1.3-.72-2.14-2.22-.63-1.12-.98-2.31-1.16-3.05l-.58-4.07c.06-.26.1-.61.11-1.07,0-.24-.03-.47-.04-.71.69-.24,1.35-.63,1.95-1.17-.71-.2-1.43-.24-2.12-.12-.13-.65-.34-1.29-.6-1.9l-.19-1.34c-.04-.8-.04-2.13.21-3.6.33-1.91.92-3.07,1.23-3.6.42.23,1.26.81,2.06,2.25.62,1.12.97,2.31,1.16,3.05l.33,2.36c-.06.56-.08,1.12-.06,1.68-.43.25-.83.56-1.16.95.43.09.85.12,1.26.11.13.97.39,1.92.75,2.83l.35,2.46c.03.81.03,2.13-.21,3.6ZM42.8,153.5c-.55,2.16-1.38,3.56-1.86,4.24-.59-.19-1.83-.73-2.96-2.41-.84-1.25-1.28-2.61-1.49-3.45l-.42-3.28c.11-1.03.11-2.06-.04-3.08.61-.25,1.19-.61,1.72-1.09-.66-.19-1.33-.24-1.98-.15-.12-.46-.26-.9-.43-1.34l-.39-3.03c0-.93.06-2.47.51-4.21.58-2.25,1.49-3.64,1.98-4.29.6.23,1.76.83,2.84,2.45.83,1.25,1.27,2.6,1.49,3.45l.29,2.25c-.13.87-.16,1.76-.09,2.63-.63.26-1.2.66-1.67,1.2.63.13,1.25.14,1.84.06.16.82.4,1.63.72,2.4l.44,3.42c0,.94-.07,2.48-.51,4.21ZM70.62,136.6c-.69,2.23-.8,4.58-1.2,6.91-1.34,10.9-10.86,19.7-19.21,8.44-.61-.79-1.48-1.99-2.16-2.7-.79-.9-1.72-1.29-2.76-1.92.62-.23,1.29-.06,1.84.22,1.63.77,2.8,2.37,3.88,3.76,1.46,1.78,2.99,3.59,5.04,4.47,4.44,1.9,8.94-1.79,10.75-5.76,2.24-4.2,2.13-9.05,3.44-13.55,1.4-4.55,4.3-8.49,7.8-11.61-3.41,3.22-6.13,7.23-7.41,11.72ZM84.7,113.59c-.29,3.25,1.53,6.12-2.14,8.27-2.71,1.53-5.82,1.85-8.8,2.07-4.52.25-9.04-.04-13.53-.56-13.96-2.76-10.53,8.17-14.93,16.62-.38.67-.84,1.31-1.34,1.9-.09,0-.17-.02-.26-.02-.14-.69-.34-1.36-.6-2.01,1.85-2.54,2.55-5.99,3.32-9.06,1.72-7.92,6.24-10.35,13.96-8.56,4.41.64,8.88,1.05,13.34.93,2.94-.12,6-.38,8.58-1.75,3.48-1.85,1.73-4.79,2.14-7.86.44-3.03,2.3-5.67,4.69-7.46-2.34,1.85-4.09,4.53-4.43,7.49ZM79.99,89.97c-1.61-2.09-2.96-4.68-5.69-5.24-1.83-.51-3.35.64-5.16.89-.94.16-1.91.19-2.86.1-13.17-1.79-13.65-18.12-8.82-27.68,3.08-6.74,9.67-11.91,17.07-12.69-7.16,1.45-13.12,6.57-16.03,13.17-4.2,8.85-4.19,24.25,7.89,26.15,1.79.23,3.45-.09,5.17-.69.91-.3,2-.32,2.92-.07,2.9.63,4.45,3.52,6,5.69,3,4.59,7.61,7.88,12.9,9.4-5.38-1.2-10.23-4.51-13.39-9.04Z"/>
      </g>
    </g>
  </g>
</svg>