<svg width="48" height="48" viewBox="0 0 48 48" fill="none" xmlns="http://www.w3.org/2000/svg">
<rect width="48" height="48" rx="10" fill="#A9E149"/>
<path d="M40.7998 18.1115C40.0013 16.6114 38.8086 15.3577 37.3502 14.4854C35.8918 13.6131 34.223 13.1553 32.5236 13.1613H6.31503C6.13738 13.1628 5.96412 13.2167 5.81695 13.3162C5.66978 13.4157 5.55525 13.5565 5.48771 13.7208C5.42016 13.8851 5.40261 14.0657 5.43724 14.24C5.47187 14.4142 5.55714 14.5744 5.68239 14.7004L11.391 20.4423C11.6407 20.6933 11.9376 20.8925 12.2646 21.0284C12.5916 21.1643 12.9422 21.2342 13.2963 21.234H31.7726C32.0855 21.2309 32.3959 21.2894 32.6862 21.4062C32.9765 21.523 33.2409 21.6959 33.4644 21.9149C33.6878 22.1339 33.866 22.3948 33.9887 22.6826C34.1113 22.9705 34.1761 23.2797 34.1792 23.5926C34.1824 23.9055 34.1239 24.2159 34.0071 24.5062C33.8902 24.7965 33.7174 25.0609 33.4984 25.2844C33.2794 25.5079 33.0185 25.686 32.7306 25.8087C32.4428 25.9313 32.1336 25.9961 31.8207 25.9992H19.0826C18.9047 26 18.7309 26.0534 18.5832 26.1526C18.4355 26.2519 18.3204 26.3926 18.2524 26.557C18.1844 26.7215 18.1665 26.9024 18.201 27.077C18.2355 27.2516 18.3208 27.4121 18.4463 27.5383L24.1586 33.2839C24.4082 33.5351 24.7051 33.7344 25.0321 33.8703C25.3591 34.0062 25.7098 34.076 26.064 34.0756H31.8244C39.3199 34.0756 44.9879 26.0621 40.7998 18.1078" fill="black"/>
</svg>
