<svg width="48" height="48" viewBox="0 0 48 48" fill="none" xmlns="http://www.w3.org/2000/svg">
<g clip-path="url(#clip0_441_683)">
<path d="M38.5449 0H9.45514C4.23321 0 0 4.23321 0 9.45514V38.5449C0 43.7668 4.23321 48 9.45514 48H38.5449C43.7668 48 48 43.7668 48 38.5449V9.45514C48 4.23321 43.7668 0 38.5449 0Z" fill="#A9E149"/>
<path d="M23.0041 32.1607C23.01 31.6663 22.8688 31.1814 22.5985 30.7675C22.3282 30.3535 21.9409 30.0293 21.4859 29.836C21.0309 29.6427 20.5286 29.589 20.043 29.6818C19.5574 29.7746 19.1104 30.0097 18.7587 30.3572C18.407 30.7046 18.1666 31.1488 18.0679 31.6332C17.9693 32.1177 18.0169 32.6205 18.2047 33.0778C18.3925 33.5352 18.712 33.9263 19.1226 34.2016C19.5332 34.477 20.0165 34.624 20.5108 34.624C20.8369 34.6284 21.1607 34.5678 21.4632 34.446C21.7657 34.3241 22.0409 34.1433 22.2729 33.9141C22.5049 33.6849 22.689 33.4118 22.8146 33.1108C22.9401 32.8098 23.0045 32.4868 23.0041 32.1607ZM25.0394 28.135V36.2163H22.9652V35.489C22.2264 36.0867 21.3025 36.4085 20.3522 36.3989C19.786 36.4139 19.2224 36.3154 18.6949 36.1091C18.1674 35.9028 17.6865 35.5929 17.2807 35.1977C16.8748 34.8026 16.5523 34.3301 16.3321 33.8082C16.1118 33.2863 15.9984 32.7256 15.9984 32.1592C15.9984 31.5928 16.1118 31.0321 16.3321 30.5102C16.5523 29.9883 16.8748 29.5158 17.2807 29.1207C17.6865 28.7255 18.1674 28.4156 18.6949 28.2093C19.2224 28.003 19.786 27.9045 20.3522 27.9195C21.3093 27.9154 22.2377 28.2457 22.9771 28.8533V28.135H25.0394ZM31.9235 34.3726H30.3641C29.8882 34.3726 29.5829 34.1661 29.5829 33.738V29.9548H31.9235V28.135H29.5918V25.8303H27.4967V28.135H25.9223V29.9638H27.4997V34.2588C27.4997 35.3423 28.2809 36.2014 29.6876 36.2014H31.9324L31.9235 34.3726ZM36.6495 36.4079C39.044 36.4079 40.3969 35.2885 40.3969 33.738C40.3969 32.6366 39.5977 31.8135 37.9246 31.4603L36.1557 31.1041C35.129 30.9186 34.8058 30.73 34.8058 30.3589C34.8058 29.871 35.2996 29.5717 36.2125 29.5717C37.2002 29.5717 37.9246 29.8351 38.1341 30.73H40.2083C40.0916 29.0509 38.8554 27.9285 36.3442 27.9285C34.1772 27.9285 32.6538 28.8084 32.6538 30.5055C32.6538 31.6818 33.4918 32.448 35.2996 32.8222L37.2781 33.2711C38.0563 33.4208 38.2658 33.6243 38.2658 33.9416C38.2658 34.4474 37.6672 34.7647 36.7243 34.7647C35.5271 34.7647 34.8417 34.5043 34.5753 33.6064H32.4802C32.7795 35.2885 34.0605 36.4079 36.6465 36.4079H36.6495ZM7.5957 25.2706H15.4166V27.1353H9.70882V29.8081H15.264V31.604H9.70882V34.2978H15.4166V36.1654H7.5957V25.2706Z" fill="black"/>
<path d="M40.2173 15.8064V14.3398H39.6606C39.2721 14.3243 38.8866 14.413 38.544 14.5966C38.2014 14.7803 37.9141 15.0523 37.7121 15.3844V14.4027H36.1227V22.3613H37.727V17.8357C37.727 16.6026 38.4903 15.8064 39.5408 15.8064H40.2173ZM28.676 17.6591C28.7892 17.0867 29.0975 16.5713 29.5484 16.2009C29.9993 15.8304 30.5647 15.6279 31.1482 15.6279C31.7318 15.6279 32.2972 15.8304 32.7481 16.2009C33.199 16.5713 33.5073 17.0867 33.6205 17.6591H28.676ZM31.1872 14.247C30.6415 14.2423 30.1002 14.3457 29.5948 14.5513C29.0893 14.757 28.6296 15.0607 28.2422 15.4451C27.8548 15.8294 27.5474 16.2867 27.3377 16.7906C27.1281 17.2944 27.0204 17.8348 27.0208 18.3805C27.0208 20.754 28.8974 22.5319 31.3308 22.5319C32.0065 22.5455 32.6758 22.3985 33.2836 22.1029C33.8913 21.8074 34.4202 21.3717 34.8267 20.8318L33.6654 19.9877C33.4009 20.3583 33.0501 20.6588 32.6433 20.8632C32.2365 21.0677 31.786 21.1699 31.3308 21.161C30.6851 21.1693 30.058 20.9454 29.5635 20.5301C29.0691 20.1148 28.7403 19.5357 28.637 18.8983H35.2218V18.3805C35.2218 16.0099 33.5068 14.247 31.1692 14.247H31.1872ZM22.0164 21.161C21.4707 21.1575 20.9384 20.9925 20.4865 20.6867C20.0345 20.381 19.6832 19.9483 19.4769 19.4432C19.2705 18.9381 19.2184 18.3832 19.327 17.8485C19.4356 17.3138 19.7001 16.8233 20.0872 16.4387C20.4743 16.0541 20.9665 15.7928 21.5019 15.6877C22.0373 15.5825 22.5919 15.6383 23.0956 15.8479C23.5994 16.0575 24.0298 16.4116 24.3326 16.8655C24.6353 17.3194 24.7969 17.8528 24.7969 18.3984C24.7961 18.7625 24.7236 19.1229 24.5833 19.4589C24.4431 19.7948 24.238 20.0999 23.9797 20.3565C23.7214 20.6131 23.415 20.8162 23.0781 20.9543C22.7413 21.0924 22.3804 21.1626 22.0164 21.161ZM17.6584 22.3613H19.2478V21.3616C19.6278 21.7416 20.0791 22.0429 20.5757 22.2483C21.0724 22.4538 21.6046 22.5593 22.1421 22.5588C22.6976 22.5737 23.2505 22.4772 23.7681 22.2749C24.2857 22.0726 24.7576 21.7686 25.1558 21.3809C25.554 20.9933 25.8705 20.5298 26.0866 20.0178C26.3027 19.5058 26.414 18.9557 26.414 18.3999C26.414 17.8442 26.3027 17.2941 26.0866 16.7821C25.8705 16.2701 25.554 15.8066 25.1558 15.4189C24.7576 15.0312 24.2857 14.7273 23.7681 14.525C23.2505 14.3227 22.6976 14.2261 22.1421 14.241C21.6069 14.2407 21.0769 14.3464 20.5827 14.5519C20.0886 14.7573 19.6399 15.0586 19.2627 15.4383V11.4365H17.6584V22.3613ZM12.0015 21.0802C13.543 21.0802 14.7342 19.9099 14.7342 18.1799V11.4365H16.4043V22.3613H14.7492V21.3466C14.365 21.7337 13.9067 22.0392 13.4016 22.2449C12.8966 22.4506 12.3552 22.5523 11.81 22.5438C9.4155 22.5438 7.5957 20.8408 7.5957 18.2667V11.4365H9.27781V18.1799C9.27781 19.9429 10.4541 21.0802 12.0135 21.0802" fill="black"/>
</g>
<defs>
<clipPath id="clip0_441_683">
<rect width="48" height="48" fill="white"/>
</clipPath>
</defs>
</svg>
